<svg width="177" height="56" viewBox="0 0 177 56" fill="none" xmlns="http://www.w3.org/2000/svg">
<g clip-path="url(#clip0_274_740)">
<path d="M28.4539 22.3645H29.0651C31.1314 22.3645 32.8098 24.0419 32.8098 26.107V30.7027C32.8098 32.7679 31.1314 34.4452 29.0651 34.4452H24.1562C22.9921 34.4452 22.4391 35.0366 22.4391 36.1613V41.0673C22.4391 43.1324 20.7608 44.8098 18.6944 44.8098H14.096C12.0296 44.8098 10.3513 43.1324 10.3513 41.0673C10.3513 41.0673 10.3513 37.3927 10.3513 36.1613C10.3513 34.9397 9.74979 34.4452 8.62444 34.4452H3.7447C1.67832 34.4355 0 32.7582 0 30.693V26.0973C0 24.0322 1.67832 22.3549 3.7447 22.3549H8.64385C9.73039 22.3549 10.3707 21.744 10.3707 20.6097V15.7425C10.3707 13.6773 12.049 12 14.1154 12H18.7138C20.7802 12 22.4585 13.6773 22.4585 15.7425V20.6193C22.4585 21.8119 22.895 22.3645 24.1465 22.3645H25.0099L22.4876 25.8065C20.557 25.6513 19.0145 24.0322 19.0145 22.064V17.1774C19.0145 15.9849 18.5586 15.4419 17.278 15.4419H15.5318C14.4452 15.4419 13.8146 16.0237 13.8146 17.1774V22.064C13.8146 24.1291 12.1363 25.8065 10.0699 25.8065H5.18049C3.91932 25.8065 3.44396 26.6306 3.44396 27.5517V29.2775C3.44396 30.3149 4.07454 31.0033 5.16109 31.0033H10.0699C12.1363 31.0033 13.8146 32.6806 13.8146 34.7458V39.642C13.8146 40.7473 14.3676 41.3678 15.5124 41.3678H17.2683C18.3548 41.3678 19.0048 40.7085 19.0048 39.6226V34.7458C19.0048 32.6806 20.6831 31.0033 22.7495 31.0033H27.6584C28.8419 31.0033 29.3755 30.4022 29.3755 29.2581V27.5323C29.3755 26.3494 28.7546 25.8065 27.6196 25.8065H25.9315L28.4539 22.3645Z" fill="url(#paint0_linear_274_740)"/>
<path d="M71.4468 18.9073L79.262 37.9024H75.6529L73.8351 33.3974H65.1243L63.3331 37.9024H59.8899L67.5923 18.9073H71.4468ZM66.345 30.2791H72.5879L69.4698 22.49L66.345 30.2791Z" fill="#8168F0"/>
<path d="M95.4561 22.0322H85.3388V37.9024H81.9487V18.9073H98.8529V37.9024H95.4627V22.0322H95.4561Z" fill="#8168F0"/>
<path d="M117.782 22.0321H111.38V37.9023H107.99V22.0321H101.694V18.9138H117.782V22.0321V22.0321Z" fill="#8168F0"/>
<path d="M132.762 29.682H124.025V34.7841H134.062V37.9024H120.635V18.9073H133.764V22.0256H124.025V26.5571H132.762V29.682V29.682Z" fill="#8168F0"/>
<path d="M57.0249 29.682H48.2876V34.7841H58.3252V37.9024H44.8975V18.9073H58.0267V22.0256H48.2876V26.5571H57.0249V29.682V29.682Z" fill="#8168F0"/>
<path d="M141.491 37.9024H138.101V18.9073H141.491V26.8822H144.338L150.441 18.9073H154.568L147.323 27.9437L155.735 37.9024H151.396L144.503 29.682H141.491V37.9024V37.9024Z" fill="#8168F0"/>
<path d="M167.629 18.9073L175.444 37.9024H171.835L170.017 33.3974H161.307L159.515 37.9024H156.072L163.775 18.9073H167.629ZM162.527 30.2791H168.77L165.652 22.49L162.527 30.2791Z" fill="#8168F0"/>
</g>
<defs>
<linearGradient id="paint0_linear_274_740" x1="9.21677" y1="40.8425" x2="24.0286" y2="15.1724" gradientUnits="userSpaceOnUse">
<stop stop-color="#8168F0"/>
<stop offset="0.137" stop-color="#7F6DF0"/>
<stop offset="0.2924" stop-color="#787AF0"/>
<stop offset="0.4568" stop-color="#6C91F1"/>
<stop offset="0.6273" stop-color="#5DB1F1"/>
<stop offset="0.8012" stop-color="#48D9F2"/>
<stop offset="0.8195" stop-color="#46DEF2"/>
<stop offset="1" stop-color="#50E3C2"/>
</linearGradient>
<clipPath id="clip0_274_740">
<rect width="177" height="32.8098" fill="white" transform="translate(0 12)"/>
</clipPath>
</defs>
</svg>
